<svg width="18" height="22" viewBox="0 0 18 22" fill="none" xmlns="http://www.w3.org/2000/svg">
<path fill-rule="evenodd" clip-rule="evenodd" d="M18 3.36277V16.0572C18 16.5216 17.6261 16.8979 17.1647 16.8979C16.7034 16.8979 16.3295 16.5216 16.3295 16.0572V3.36277C16.3295 2.43571 15.58 1.68139 14.6589 1.68139H5.38747C4.92612 1.68139 4.5522 1.30504 4.5522 0.840693C4.5522 0.376341 4.92612 0 5.38747 0H14.6589C16.5013 0 18 1.50849 18 3.36277ZM11.3179 21.5217H3.34107C1.49875 21.5217 0 20.0133 0 18.159V6.76758C0 4.91329 1.49875 3.40481 3.34107 3.40481H11.3179C13.1602 3.40481 14.6589 4.91329 14.6589 6.76758V18.159C14.6589 20.0133 13.1602 21.5217 11.3179 21.5217ZM3.34107 5.08619C2.41999 5.08619 1.67053 5.84052 1.67053 6.76758V18.159C1.67053 19.086 2.41999 19.8404 3.34107 19.8404H11.3179C12.2389 19.8404 12.9884 19.086 12.9884 18.159V6.76758C12.9884 5.84052 12.2389 5.08619 11.3179 5.08619H3.34107Z" fill="#405BF5"/>
</svg>
