<svg width="20" height="21" viewBox="0 0 20 21" fill="none" xmlns="http://www.w3.org/2000/svg">
<path fill-rule="evenodd" clip-rule="evenodd" d="M19.7528 16.8444C19.7431 16.7176 19.6869 16.5958 19.5946 16.5048L11.622 8.47672C11.9356 7.73265 12.1012 6.92686 12.1012 6.0941C12.1012 4.46663 11.4708 2.93536 10.3299 1.78361C9.18727 0.634136 7.66765 0 6.05051 0C4.43259 0 2.9156 0.634351 1.77117 1.78454C-0.590082 4.16094 -0.590579 8.02619 1.77081 10.4024C2.91518 11.555 4.43266 12.1898 6.04973 12.1898C6.87695 12.1898 7.67518 12.0217 8.41588 11.7054L11.035 14.3448C11.144 14.4532 11.2877 14.5107 11.4428 14.5056L12.8701 14.4552L12.8235 15.896C12.8191 16.048 12.8736 16.1959 12.983 16.3041C13.0884 16.4123 13.2365 16.4711 13.3868 16.4649L14.8194 16.4157L14.768 17.8549C14.7635 18.0071 14.8215 18.1553 14.9269 18.2635C15.0359 18.3716 15.1628 18.4298 15.3346 18.4245L16.7637 18.3756L16.7158 19.8151C16.7074 19.9747 16.7742 20.1283 16.8876 20.2373C16.9921 20.333 17.1226 20.3846 17.2601 20.3846C17.2799 20.3846 17.3001 20.3838 17.3203 20.382L19.5116 20.1369C19.8077 20.1044 20.0234 19.8383 19.998 19.5395L19.7528 16.8444ZM5.31954 5.35826C4.64646 6.03531 3.55828 6.03531 2.88662 5.35826C2.21397 4.68099 2.21397 3.58545 2.88662 2.90883C3.55828 2.23221 4.64611 2.23156 5.31954 2.90861C5.99127 3.58516 5.99085 4.68142 5.31954 5.35826ZM17.5909 17.1489C17.695 17.1489 17.8022 17.1087 17.8822 17.0282C18.0421 16.8672 18.0421 16.6044 17.8821 16.4433L11.0328 9.54766C10.8768 9.7746 10.705 9.99047 10.5162 10.1955L17.2996 17.0282C17.3795 17.1087 17.4868 17.1489 17.5909 17.1489Z" fill="#979CB9"/>
</svg>
