<?xml version="1.0" encoding="utf-8"?>
<!-- Generator: Adobe Illustrator 23.0.3, SVG Export Plug-In . SVG Version: 6.00 Build 0)  -->
<svg version="1.1" id="Capa_1" xmlns="http://www.w3.org/2000/svg" xmlns:xlink="http://www.w3.org/1999/xlink" x="0px" y="0px"
	 viewBox="0 0 116.3 116.3" style="enable-background:new 0 0 116.3 116.3;" xml:space="preserve">
<style type="text/css">
	.st0{fill:#242424;}
	.st1{fill:#211F20;}
	.st2{fill:#232323;}
	.st3{fill:#252525;}
	.st4{fill:#222222;}
	.st5{fill:#1F1F1F;}
	.st6{fill:#211E1F;}
	.st7{fill:#201E1F;}
	.st8{fill:#212020;}
	.st9{fill:#221F20;}
	.st10{fill:#222021;}
	.st11{fill:#201F20;}
	.st12{fill:#0383B2;}
	.st13{fill:#66B623;}
	.st14{fill:#1AAC6E;}
	.st15{fill:#FF3530;}
	.st16{fill:#111224;}
	.st17{fill:#FEFEFE;}
	.st18{fill:#F8F8F8;}
	.st19{fill:#FDFDFD;}
	.st20{fill:#262626;}
	.st21{fill:#FBFBFB;}
	.st22{fill:#FCFAFB;}
	.st23{fill:#201D1E;}
	.st24{fill:#FDFCFC;}
	.st25{fill:#FBFAFB;}
	.st26{fill:#2A2A2A;}
	.st27{fill:#FEFDFD;}
	.st28{fill:#FDFCFD;}
	.st29{fill:#FCFDFD;}
	.st30{fill:#FDFBFC;stroke:#2A2A2A;stroke-width:6;stroke-miterlimit:10;}
	.st31{fill:#FDFBFC;stroke:#2A2A2A;stroke-width:6;stroke-linecap:round;stroke-miterlimit:10;}
	.st32{fill:#FDFBFC;}
	.st33{fill:#F3F1F2;}
	.st34{fill:#F7F5F6;}
	.st35{fill:#F4F2F3;}
	.st36{fill:#244959;}
	.st37{fill:#FF6D3A;}
	.st38{fill:#12E2E2;}
	.st39{fill:#F1C667;}
	.st40{fill:#F0C76D;}
	.st41{fill:#FFDF8E;}
	.st42{fill:#2C4156;}
	.st43{fill:#12E2E2;stroke:#244959;stroke-width:6;stroke-miterlimit:10;}
	.st44{fill:#18AE89;}
</style>
<g>
	<g>
		<path class="st16" d="M54,51.7c-6.2,0-11.2,5-11.2,11.2c0,2.8,1.1,5.6,3.1,7.6v13.3c0,4.5,3.7,8.2,8.2,8.2s8.2-3.7,8.2-8.2V70.6
			c1.9-2.1,3-4.8,3-7.6C65.2,56.7,60.2,51.7,54,51.7z M58.3,67.8l-0.8,0.7v15.3c0,1.9-1.6,3.5-3.5,3.5c-1.9,0-3.5-1.6-3.5-3.5V68.5
			l-0.8-0.7c-1.5-1.3-2.3-3-2.3-4.9c0-3.6,2.9-6.6,6.6-6.6c3.6,0,6.6,2.9,6.6,6.6C60.5,64.8,59.7,66.6,58.3,67.8z"/>
		<path class="st16" d="M94.8,43.8c0-8.7-1.6-10.4-10.3-10.2c-3,0.1-4.2-0.5-4.5-3.9C78.9,16.2,68.3,6.1,55.3,5.6
			C41.5,5.1,30,14.2,28.1,28c-0.7,5-2.3,5.9-6.8,5.6c-6-0.4-8.2,2-8.2,8c0,19,0,38,0,57c0,7.7,3.8,11.5,11.4,11.5c9.7,0,19.3,0,29,0
			c9.7,0,19.3,0,29,0c8.7,0,12.3-3.5,12.3-12.1C94.9,80,94.8,61.9,94.8,43.8z M32.9,30.3C33.6,19.5,43.1,10.9,54.3,11
			c10.9,0.1,20.2,9.1,20.7,19.5c0.1,2.6-1,3.1-3.2,3.1c-6.1-0.1-12.1,0-18.2,0c0,0,0,0,0,0c-5.8,0-11.5-0.1-17.3,0
			C33.8,33.6,32.7,33.2,32.9,30.3z M89.6,98.1c0,5.4-1.3,6.6-6.6,6.6c-19.3,0-38.6,0-57.9,0c-5.4,0-6.6-1.3-6.6-6.6
			c0-18.4,0.1-36.7-0.1-55.1c0-3.6,1.2-4.4,4.6-4.4c10.4,0.2,20.9,0.1,31.3,0.1c0,0,0,0,0,0c10.3,0,20.6,0.1,30.8-0.1
			c3.3-0.1,4.7,0.6,4.7,4.3C89.5,61.4,89.6,79.8,89.6,98.1z"/>
	</g>
</g>
</svg>
