<svg width="25" height="30" viewBox="0 0 25 30" fill="none" xmlns="http://www.w3.org/2000/svg">
<path d="M0 0.625L24.85 0.625V6.19L0 6.19V0.625ZM0 8.80078L24.85 8.80078V17.2708C24.85 20.7708 23.6367 23.7574 21.21 26.2308C18.7833 28.7041 15.855 29.9408 12.425 29.9408C8.995 29.9408 6.06667 28.7041 3.64 26.2308C1.21333 23.7574 0 20.7708 0 17.2708V8.80078ZM5.11 14.3658V17.2708C5.11 19.3241 5.81 21.0041 7.21 22.3108C8.63333 23.6408 10.3717 24.3058 12.425 24.3058C14.4783 24.3058 16.205 23.6408 17.605 22.3108C19.0283 21.0041 19.74 19.3241 19.74 17.2708V14.3658H5.11Z" fill="#405BF5"/>
</svg>
