<svg width="130" height="130" viewBox="0 0 130 130" fill="none" xmlns="http://www.w3.org/2000/svg">
<circle cx="65" cy="65" r="65" fill="#798CF8"/>
<path d="M130 68.843L82.9416 21.2959C78.5903 16.555 72.3765 13.582 65.4876 13.582C52.3599 13.582 41.6797 24.3733 41.6797 37.6374V51.9535H37.8204C33.5601 51.9535 30.0742 55.4755 30.0742 59.7801V92.1227C30.0742 96.9271 32.1633 101.261 35.4669 104.248L60.7829 129.827C62.3366 129.94 63.9051 130 65.4871 130C99.8074 130 127.875 102.978 130 68.843Z" fill="#6775C6"/>
<path d="M90.2237 56.2688H81.2923V36.829C81.2923 28.3931 74.4188 21.5303 65.9704 21.5303C57.522 21.5303 50.6483 28.3934 50.6483 36.829V56.2688H41.7168V36.829C41.7168 23.4758 52.597 12.6121 65.9704 12.6121C79.3438 12.6121 90.2243 23.4758 90.2243 36.829V56.2688H90.2237Z" fill="#3C3B41"/>
<path d="M64.0303 12.6121V21.5301C72.479 21.5301 79.3524 28.3932 79.3524 36.8289V56.2688H88.284V36.8289C88.2843 23.4756 77.4037 12.6121 64.0303 12.6121Z" fill="#171719"/>
<path d="M84.7834 107.687H46.1856C37.3246 107.687 30.0742 100.51 30.0742 91.7384V60.0553C30.0742 55.8384 33.5598 52.3882 37.8197 52.3882H93.1496C97.4096 52.3882 100.895 55.8384 100.895 60.0553V91.7384C100.895 100.51 93.6445 107.687 84.7834 107.687Z" fill="#FFDB2D"/>
<path d="M91.8612 52.3882H63.0596V107.687H83.1517C92.3769 107.687 99.9252 100.51 99.9252 91.7383V60.0551C99.925 55.8385 96.2962 52.3882 91.8612 52.3882Z" fill="#EBB300"/>
<rect x="36.8652" y="68.8806" width="57.2388" height="21.3433" fill="white"/>
<rect x="63.0596" y="68.8806" width="30.0746" height="21.3433" fill="#D8D8DA"/>
<rect x="38.8057" y="72.7612" width="53.3582" height="15.5224" fill="#3C3B41"/>
<rect x="65.9697" y="72.7612" width="26.194" height="15.5224" fill="#171719"/>
<path d="M54.5363 78.3782L53.2808 76.3997L50.3108 78.6395V74.7029H48.1037V78.6395L45.1338 76.3997L43.8779 78.3782L47.2674 80.9346L43.8779 83.4912L45.1338 85.4696L48.1037 83.2299V87.1665H50.3108V83.2299L53.2808 85.4696L54.5363 83.4912L51.1466 80.9346L54.5363 78.3782Z" fill="white"/>
<path d="M70.6177 78.3782L69.3616 76.3997L66.3919 78.6395V74.7029H64.1845V78.6395L61.2148 76.3997L59.959 78.3782L63.3485 80.9346L59.959 83.4912L61.2148 85.4696L64.1845 83.2299V87.1665H66.3919V83.2299L69.3616 85.4696L70.6177 83.4912L67.2279 80.9346L70.6177 78.3782Z" fill="white"/>
<path d="M65.1695 83.2299L68.2329 85.4696L69.5287 83.4912L66.0319 80.9346L69.5287 78.3782L68.2329 76.3997L65.1695 78.6395V74.7029H64.0312V87.1665H65.1695V83.2299Z" fill="#D8D8DA"/>
<path d="M86.1181 78.3782L84.8226 76.3997L81.7592 78.6395V74.7029H79.4822V78.6395L76.4188 76.3997L75.123 78.3782L78.6198 80.9346L75.123 83.4912L76.4188 85.4696L79.4822 83.2299V87.1665H81.7592V83.2299L84.8226 85.4696L86.1181 83.4912L82.6214 80.9346L86.1181 78.3782Z" fill="#D8D8DA"/>
</svg>
