<svg width="100" height="100" viewBox="0 0 100 100" fill="none" xmlns="http://www.w3.org/2000/svg">
<circle cx="50" cy="50" r="50" fill="#EF5261"/>
<path d="M82.0964 41.6341V78.9188H17.9176L41.2679 58.5378L17.9043 41.6341L50.0004 14.9678L82.0964 41.6341Z" fill="#EAB54E"/>
<path d="M23.7852 21.2664H75.881V61.7074H23.7852V21.2664Z" fill="#EEEFEE"/>
<path d="M58.7324 58.5377L82.0827 78.9187H82.096V41.634L58.7324 58.5377Z" fill="#F6C863"/>
<path d="M41.2679 58.5377L17.9176 78.9187H17.9043V41.634L41.2679 58.5377Z" fill="#F6C863"/>
<path d="M82.0835 78.9188H17.918L41.2683 58.5378H58.7332L82.0835 78.9188Z" fill="#EAB54E"/>
<path d="M50.003 51.7531L58.4505 40.6635L54.0706 40.6596V29.4839H45.7828L45.7867 40.6635L41.5508 40.6596L50.003 51.7531Z" fill="#2CBFAE"/>
</svg>
