<svg width="16" height="20" viewBox="0 0 16 20" fill="none" xmlns="http://www.w3.org/2000/svg">
<path d="M7.86401 9.21992C9.13066 9.21992 10.2275 8.76562 11.1236 7.86931C12.0198 6.97313 12.4741 5.87661 12.4741 4.60981C12.4741 3.34346 12.0198 2.24679 11.1235 1.35032C10.2272 0.454293 9.13051 0 7.86401 0C6.59722 0 5.50069 0.454293 4.60452 1.35047C3.70835 2.24664 3.25391 3.34331 3.25391 4.60981C3.25391 5.87661 3.70835 6.97328 4.60467 7.86945C5.50099 8.76548 6.59766 9.21992 7.86401 9.21992Z" fill="#979CB9"/>
<path d="M15.9301 14.7179C15.9042 14.3449 15.8519 13.9381 15.775 13.5085C15.6973 13.0757 15.5973 12.6665 15.4775 12.2925C15.3538 11.906 15.1856 11.5243 14.9777 11.1585C14.7618 10.7788 14.5083 10.4482 14.2239 10.1761C13.9264 9.89151 13.5622 9.66269 13.1411 9.49578C12.7214 9.32974 12.2563 9.24563 11.7588 9.24563C11.5634 9.24563 11.3744 9.3258 11.0095 9.56339C10.7849 9.70985 10.5222 9.87925 10.229 10.0666C9.97824 10.2264 9.63858 10.376 9.21904 10.5115C8.80972 10.644 8.39413 10.7112 7.98394 10.7112C7.57374 10.7112 7.15829 10.644 6.74854 10.5115C6.32944 10.3762 5.98978 10.2265 5.73934 10.0667C5.44889 9.88114 5.18604 9.71175 4.95809 9.56324C4.5936 9.32565 4.4045 9.24548 4.20911 9.24548C3.71145 9.24548 3.2465 9.32974 2.82696 9.49592C2.4061 9.66254 2.04176 9.89137 1.74401 10.1763C1.4597 10.4485 1.20605 10.7789 0.990508 11.1585C0.78271 11.5243 0.614486 11.9058 0.490654 12.2927C0.371057 12.6666 0.271028 13.0757 0.193341 13.5085C0.116384 13.9375 0.0641063 14.3445 0.0382594 14.7183C0.0128505 15.0846 0 15.4647 0 15.8486C0 16.8477 0.317611 17.6566 0.943925 18.2531C1.5625 18.8417 2.38099 19.1403 3.37631 19.1403H12.5924C13.5878 19.1403 14.406 18.8419 15.0247 18.2531C15.6511 17.657 15.9688 16.848 15.9688 15.8484C15.9686 15.4628 15.9556 15.0824 15.9301 14.7179Z" fill="#979CB9"/>
</svg>
